<svg id="Layer_1" data-name="Layer 1" xmlns="http://www.w3.org/2000/svg" viewBox="0 0 434.72 226.79"><defs><style>.cls-1{fill:#fff;stroke:#fff;stroke-linecap:round;stroke-linejoin:round;stroke-width:3px;}</style></defs><path class="cls-1" d="M246.51,244.89a102.58,102.58,0,0,1-13.81,1.86c-99.29,5.71-143.44-27.63-148.5-64.6-5.67-41.71,38.29-88,108.73-88.19,24.66-.06,52.44,1.74,70.63,22.3a1.75,1.75,0,0,1-2.47,2.47c-30.67-27.89-114.36-17.46-133.31,11.91-12.79,20-8.34,36.54,3.87,51.49v0a111.21,111.21,0,0,0,8.15,8.75c19.1,18.4,48.52,34.12,106.86,50.57a1.72,1.72,0,0,1-.15,3.42" transform="translate(-14.64 -22.1)"/><path class="cls-1" d="M217.51,26.11a102.3,102.3,0,0,1,13.82-1.87C442.54,12.1,404,176.72,271.06,177c-24.66,0-52.41-1.74-70.67-22.3a1.75,1.75,0,0,1,2.47-2.47c30.75,27.91,114.43,17.48,133.31-11.91,15.41-24,5.9-43-11.95-60.24C305.08,61.7,275.62,46,217.32,29.54a1.73,1.73,0,0,1,.19-3.43" transform="translate(-14.64 -22.1)"/><path class="cls-1" d="M43.6,87.41c.3-.8.57-1.8,1.13-3a17,17,0,0,1,2.86-4.54C91.24,28.25,175.23,28.41,239.74,48.22c62.9,19.3,113.4,60,79.38,90.93-12.59,11.42-29.68,22.79-72.15,20.74a1.75,1.75,0,1,1,0-3.5c64.47.17,83.81-42.2,46.63-63.93C260.32,72.94,222.23,67.56,184.1,67c-40.68-.65-81.82,4.77-138.33,22.75a1.68,1.68,0,0,1-2.17-2.32" transform="translate(-14.64 -22.1)"/><path class="cls-1" d="M280,96.75c-32.73-29.1-122.62-28-187.73-9C32.33,105.27-11,140,36.1,182.15a145.74,145.74,0,0,0,12.37,9.79,49.13,49.13,0,0,0,5.74,3.67,27.54,27.54,0,0,0,4.38,1.95,1.88,1.88,0,0,0,2.59-1.93,111.81,111.81,0,0,1,0-13.48v-.09c1.59-26.1,12.48-43.63,30.67-58.85,19.75-16.64,47.72-31.09,97.15-36.34,63.64-6.77,114.78,27.26,87.12,51.89a1.74,1.74,0,1,0,2.17,2.73c25.87-19,14.38-33.48,1.67-44.74" transform="translate(-14.64 -22.1)"/><path class="cls-1" d="M415.48,79.06a39,39,0,0,0-5.82-3.39c-1.72-.84-3.2-1.45-4.34-2a1.66,1.66,0,0,0-2.48,1.69c1.72,33.9-9.59,54.69-30.7,72.42-17.62,14.78-41.64,27.84-81.56,34.28h-.15c-4.95.79-10.09,1.48-15.46,2a150.53,150.53,0,0,1-45.54-2c-38.25-8.21-62.15-31.58-41.56-49.85a1.76,1.76,0,0,0-2.21-2.75c-25.88,19-14.35,33.5-1.71,44.74,3.35,3,11.64,7.94,11.64,7.94,39.08,20.78,117.63,18.17,176.16,1.07,1.3-.4,2.52-.78,3.81-1.11v0c62.41-19.24,104.65-57.39,39.92-103" transform="translate(-14.64 -22.1)"/><path class="cls-1" d="M418.26,181.29a1.76,1.76,0,0,1,2.25.86,1.93,1.93,0,0,1-.08,1.44c-.31.77-.61,1.78-1.15,3a19.79,19.79,0,0,1-2.93,4.55c-43.61,51.64-127.56,51.47-192.14,31.65-31.13-9.56-59.25-24.37-75.54-40.63h0c-16.55-16.63-20.89-34.72-3.73-50.29,12.6-11.43,29.61-22.8,72.15-20.75a1.75,1.75,0,1,1-.11,3.5c-64.39-.15-83.72,42.2-46.62,64,2.17,1.23,4.3,2.42,6.51,3.58,31.78,16.58,67.4,21.33,103,21.9,40.15.62,80.68-4.65,135.9-22h.19c.8-.29,1.56-.54,2.32-.77" transform="translate(-14.64 -22.1)"/></svg>